<svg width="864" height="860" viewBox="0 0 864 860" fill="none" xmlns="http://www.w3.org/2000/svg">
<path opacity="0.2" d="M824 430C824 440.201 817.713 453.047 799.048 467.542C780.629 481.845 752.79 495.551 716.692 507.408C644.699 531.055 544.044 546 432 546C319.956 546 219.301 531.055 147.308 507.408C111.21 495.551 83.3707 481.845 64.9521 467.542C46.287 453.047 40 440.201 40 430C40 419.799 46.287 406.953 64.9521 392.458C83.3707 378.155 111.21 364.449 147.308 352.592C219.301 328.945 319.956 314 432 314C544.044 314 644.699 328.945 716.692 352.592C752.79 364.449 780.629 378.155 799.048 392.458C817.713 406.953 824 419.799 824 430Z" stroke="url(#paint0_linear_3105_7585)" stroke-width="38"/>
<path opacity="0.2" d="M781.112 606.854C776.495 615.936 765.083 624.531 741.895 628.99C719.015 633.391 688.013 632.995 650.49 627.212C575.658 615.678 479.235 583.414 379.435 532.68C279.635 481.946 196.747 423.057 143.331 369.395C116.547 342.488 97.9575 317.675 88.0297 296.595C77.9689 275.234 78.1873 260.949 82.8042 251.867C87.4212 242.785 98.8335 234.19 122.021 229.73C144.902 225.329 175.903 225.726 213.426 231.509C288.258 243.043 384.681 275.307 484.481 326.041C584.281 376.775 667.169 435.664 720.585 489.325C747.369 516.233 765.959 541.046 775.886 562.125C785.947 583.487 785.729 597.772 781.112 606.854Z" stroke="url(#paint1_linear_3105_7585)" stroke-width="38"/>
<path opacity="0.2" d="M673.084 737.656C665.058 743.932 651.082 746.892 628.185 741.124C605.59 735.433 577.667 721.959 546.114 700.845C483.186 658.738 409.464 588.713 340.496 500.524C271.527 412.336 221.333 323.911 195.632 252.691C182.745 216.979 176.398 186.632 176.319 163.332C176.239 139.719 182.48 126.868 190.506 120.592C198.531 114.315 212.508 111.356 235.405 117.123C257.999 122.815 285.922 136.289 317.476 157.402C380.403 199.509 454.125 269.534 523.094 357.723C592.062 445.912 642.257 534.336 667.958 605.556C680.845 641.268 687.192 671.616 687.271 694.916C687.35 718.528 681.109 731.379 673.084 737.656Z" stroke="url(#paint2_linear_3105_7585)" stroke-width="38"/>
<path opacity="0.2" d="M351.514 813.067C341.539 810.992 330.254 802.231 319.873 781.024C309.628 760.096 301.885 730.075 297.631 692.348C289.147 617.109 295.009 515.6 317.81 405.992C340.611 296.383 375.716 200.957 413.5 135.343C432.446 102.443 451.519 77.9997 469.259 62.8938C487.237 47.5856 501.08 44.0521 511.055 46.1271C521.029 48.2021 532.315 56.9626 542.696 78.1702C552.941 99.0976 560.684 129.119 564.938 166.846C573.422 242.085 567.559 343.593 544.758 453.202C521.957 562.811 486.853 658.237 449.069 723.85C430.123 756.751 411.05 781.194 393.309 796.3C375.332 811.608 361.489 815.142 351.514 813.067Z" stroke="url(#paint3_linear_3105_7585)" stroke-width="38"/>
<path opacity="0.2" d="M173.314 724.389C165.649 717.676 160.133 704.498 161.524 680.927C162.898 657.667 170.922 627.719 185.774 592.779C215.394 523.097 270.425 437.599 344.189 353.38C417.952 269.161 495.452 203.342 560.623 164.797C593.301 145.47 621.93 133.569 644.806 129.142C667.988 124.656 681.778 128.388 689.443 135.101C697.107 141.814 702.624 154.992 701.232 178.563C699.858 201.823 691.834 231.771 676.982 266.711C647.363 336.393 592.331 421.891 518.567 506.11C444.804 590.329 367.304 656.148 302.134 694.693C269.455 714.02 240.826 725.921 217.951 730.348C194.768 734.834 180.978 731.102 173.314 724.389Z" stroke="url(#paint4_linear_3105_7585)" stroke-width="38"/>
<path opacity="0.2" d="M67.6884 573.606C63.9469 564.129 65.0742 549.887 77.1011 529.568C88.9692 509.516 109.812 486.563 139.01 462.297C197.24 413.902 285.304 363.077 389.436 321.963C493.569 280.849 592.601 257.805 668.187 253.367C706.087 251.141 736.988 253.665 759.353 260.2C782.018 266.823 792.57 276.453 796.312 285.93C800.053 295.406 798.926 309.648 786.899 329.968C775.031 350.019 754.189 372.972 724.99 397.239C666.76 445.634 578.696 496.459 474.564 537.573C370.431 578.686 271.399 601.731 195.814 606.169C157.913 608.394 127.012 605.871 104.647 599.336C81.9825 592.713 71.4299 583.082 67.6884 573.606Z" stroke="url(#paint5_linear_3105_7585)" stroke-width="38"/>
<path opacity="0.2" d="M509.364 813.728C499.377 815.74 485.556 812.12 467.675 796.699C450.03 781.483 431.11 756.92 412.371 723.902C374.998 658.052 340.493 562.408 318.379 452.659C296.266 342.909 291.04 241.366 299.995 166.182C304.486 128.483 312.417 98.5101 322.793 77.6474C333.307 56.5052 344.647 47.8156 354.634 45.8032C364.622 43.7908 378.442 47.4109 396.324 62.8315C413.969 78.0484 432.888 102.611 451.628 135.629C489 201.479 523.506 297.123 545.619 406.872C567.733 516.622 572.959 618.165 564.003 693.349C559.513 731.048 551.581 761.021 541.206 781.884C530.692 803.026 519.352 811.715 509.364 813.728Z" stroke="url(#paint6_linear_3105_7585)" stroke-width="38"/>
<defs>
<linearGradient id="paint0_linear_3105_7585" x1="368.279" y1="322.478" x2="511.238" y2="611.202" gradientUnits="userSpaceOnUse">
<stop stop-color="#542130"/>
<stop offset="1" stop-color="#542130" stop-opacity="0"/>
</linearGradient>
<linearGradient id="paint1_linear_3105_7585" x1="423.89" y1="304.727" x2="420.5" y2="626.653" gradientUnits="userSpaceOnUse">
<stop stop-color="#542130"/>
<stop offset="1" stop-color="#542130" stop-opacity="0"/>
</linearGradient>
<linearGradient id="paint2_linear_3105_7585" x1="477.207" y1="312.779" x2="337.952" y2="603.047" gradientUnits="userSpaceOnUse">
<stop stop-color="#542130"/>
<stop offset="1" stop-color="#542130" stop-opacity="0"/>
</linearGradient>
<linearGradient id="paint3_linear_3105_7585" x1="549.445" y1="389.143" x2="237.886" y2="470.252" gradientUnits="userSpaceOnUse">
<stop stop-color="#542130"/>
<stop offset="1" stop-color="#542130" stop-opacity="0"/>
</linearGradient>
<linearGradient id="paint4_linear_3105_7585" x1="554.156" y1="452.64" x2="242.994" y2="370.019" gradientUnits="userSpaceOnUse">
<stop stop-color="#542130"/>
<stop offset="1" stop-color="#542130" stop-opacity="0"/>
</linearGradient>
<linearGradient id="paint5_linear_3105_7585" x1="530.68" y1="506.323" x2="291.849" y2="290.436" gradientUnits="userSpaceOnUse">
<stop stop-color="#542130"/>
<stop offset="1" stop-color="#542130" stop-opacity="0"/>
</linearGradient>
<linearGradient id="paint6_linear_3105_7585" x1="524.751" y1="346.126" x2="270.144" y2="543.16" gradientUnits="userSpaceOnUse">
<stop stop-color="#542130"/>
<stop offset="1" stop-color="#542130" stop-opacity="0"/>
</linearGradient>
</defs>
</svg>
